<?xml version="1.0" encoding="utf-8"?>
<!-- Generator: Adobe Illustrator 24.2.1, SVG Export Plug-In . SVG Version: 6.00 Build 0)  -->
<svg version="1.1" id="Layer_1" xmlns="http://www.w3.org/2000/svg" xmlns:xlink="http://www.w3.org/1999/xlink" x="0px" y="0px"
	 viewBox="0 0 223.3 48.6" style="enable-background:new 0 0 223.3 48.6;" xml:space="preserve">
<style type="text/css">
	.st0{enable-background:new    ;}
</style>
<g class="st0">
	<path d="M14.5,10.6h9.8l-1.5,10.1c-2.1,2.4-6,4-10.3,4c-7.2,0-11.4-4.3-11.4-10.5c0-3.9,1.7-8.1,4.6-10.7C8.1,1.3,11.4,0,15.1,0
		c4.4,0,7.6,1.7,9.3,4.6l-4.2,2.8c-1.1-1.8-2.9-2.7-5.3-2.7c-2.3,0-4.3,0.8-5.8,2.4C7.3,9,6.5,11.7,6.5,14c0,3.9,2.2,6.1,6.7,6.1
		c2.1,0,4-0.5,5.4-1.4l0.5-3.8H14L14.5,10.6z"/>
	<path d="M42.2,19h-9.9l-2.6,5.2h-5.4L36.8,0.4h5.8l5.8,23.8h-5.1L42.2,19z M41.3,14.8l-2.1-9.3l-4.7,9.3H41.3z"/>
	<path d="M79.5,16.8c0,2.3-1,4.5-2.9,5.8c-1.4,1-3.3,1.6-5.5,1.6H59.2l3.3-23.8h10.8c4.4,0,6.9,2.1,6.9,5.3c0,2.2-1.1,4.3-2.9,5.4
		c-0.6,0.4-1.3,0.6-2,0.8C78,12.6,79.5,14.3,79.5,16.8z M74.4,16.5c0-1.5-1-2.3-3.4-2.3h-5.5l-0.8,5.7h5.5c1.5,0,2.4-0.2,3.1-0.8
		C74.1,18.5,74.4,17.4,74.4,16.5z M66.8,4.7L66.1,10h4.6c1.5,0,2.5-0.3,3.2-0.8c0.7-0.6,1-1.6,1-2.4c0-1.4-0.9-2.1-3.4-2.1H66.8z"/>
	<path d="M82.9,14.2c0-4.1,1.9-8.3,5.1-10.9c2.4-2,5.6-3.3,9.1-3.3c6.6,0,11.1,4.6,11.1,10.6c0,4-1.8,8.1-4.9,10.8
		c-2.4,2.1-5.7,3.4-9.3,3.4C87.3,24.7,82.9,20.3,82.9,14.2z M100,17.7c1.8-1.7,2.8-4.3,2.8-6.8c0-3.7-2.3-6.3-6.2-6.3
		c-2.1,0-4.1,0.8-5.6,2.1c-1.9,1.8-2.9,4.4-2.9,6.9c0,3.7,2.3,6.2,6.2,6.2C96.5,20,98.5,19.1,100,17.7z"/>
	<path d="M111,14.2c0-4.1,1.9-8.3,5.1-10.9c2.4-2,5.6-3.3,9.1-3.3c6.6,0,11.1,4.6,11.1,10.6c0,4-1.8,8.1-4.9,10.8
		c-2.4,2.1-5.7,3.4-9.3,3.4C115.5,24.7,111,20.3,111,14.2z M128.1,17.7c1.8-1.7,2.8-4.3,2.8-6.8c0-3.7-2.3-6.3-6.2-6.3
		c-2.1,0-4.1,0.8-5.6,2.1c-1.9,1.8-2.9,4.4-2.9,6.9c0,3.7,2.3,6.2,6.2,6.2C124.6,20,126.6,19.1,128.1,17.7z"/>
	<path d="M150.8,12.5l8.7,11.7h-6l-8-10.9h-0.2l-1.5,10.9h-5l3.3-23.8h5l-1.5,10.8h0.2l10.8-10.8h6.4L150.8,12.5z"/>
	<path d="M165.8,0.4h5l-3.3,23.8h-5L165.8,0.4z"/>
	<path d="M197.5,0.4l-3.3,23.8h-4.7L180,8.4l-2.2,15.8h-5l3.3-23.8h4.7l9.5,15.8l2.2-15.8C192.5,0.4,197.5,0.4,197.5,0.4z"/>
	<path d="M213.3,10.6h9.8l-1.4,10.1c-2.1,2.4-6,4-10.3,4c-7.2,0-11.4-4.3-11.4-10.5c0-3.9,1.7-8.1,4.6-10.7C207,1.3,210.3,0,214,0
		c4.4,0,7.6,1.7,9.3,4.6l-4.2,2.8c-1.1-1.8-2.9-2.7-5.3-2.7c-2.3,0-4.3,0.8-5.8,2.4c-1.8,1.9-2.6,4.6-2.6,6.9c0,3.9,2.2,6.1,6.7,6.1
		c2.1,0,4-0.5,5.4-1.4l0.3-3.9h-5.1L213.3,10.6z"/>
</g>
<g class="st0">
	<path d="M0,44.7l2.6-2c1,1.6,2.9,2.6,5,2.6c2,0,3-0.8,3-2c0-0.9-0.6-1.5-2.4-2l-2.8-0.7c-3.3-0.8-4.9-2.5-4.9-5
		c0-3,2.5-5.2,6.7-5.2c3.2,0,5.7,1.2,6.8,3.2l-2.6,2c-1-1.2-2.4-1.9-4.3-1.9s-2.9,0.8-2.9,1.8c0,0.8,0.6,1.4,2.5,1.9l2.9,0.7
		c3.3,0.8,4.8,2.5,4.8,5c0,3.3-2.5,5.5-6.9,5.5C3.9,48.6,1.2,47.1,0,44.7z"/>
	<path d="M48.3,30.7l-6.4,10.6v6.9h-3.7v-6.9l-6.4-10.6H36l4.1,7.2l4.1-7.2H48.3z"/>
	<path d="M65.5,44.7l2.6-2c1,1.6,2.9,2.6,5,2.6c2,0,3-0.8,3-2c0-0.9-0.6-1.5-2.4-2l-2.8-0.7c-3.3-0.8-4.9-2.5-4.9-5
		c0-3,2.5-5.2,6.7-5.2c3.2,0,5.7,1.2,6.8,3.2l-2.6,2c-1-1.2-2.4-1.9-4.3-1.9c-1.9,0-2.9,0.8-2.9,1.8c0,0.8,0.6,1.4,2.5,1.9l2.9,0.7
		c3.3,0.8,4.8,2.5,4.8,5c0,3.3-2.5,5.5-6.9,5.5C69.5,48.6,66.8,47.1,65.5,44.7z"/>
	<path d="M103.4,34.2h-5.2v-3.4h14.1v3.4h-5.2v14.1h-3.7L103.4,34.2L103.4,34.2z"/>
	<path d="M144.7,44.9v3.3h-12.9V30.7h12.6V34h-8.9v3.7h8.3V41h-8.3v3.8L144.7,44.9L144.7,44.9z"/>
	<path d="M184.6,30.7v17.5H181V36l-4.7,8h-2.8l-4.7-8v12.2h-3.6V30.7h4.3l5.3,9.2l5.3-9.2H184.6z"/>
	<path d="M204.3,44.7l2.6-2c1,1.6,2.9,2.6,5,2.6c2,0,3-0.8,3-2c0-0.9-0.6-1.5-2.4-2l-2.8-0.7c-3.3-0.8-4.9-2.5-4.9-5
		c0-3,2.5-5.2,6.7-5.2c3.2,0,5.7,1.2,6.8,3.2l-2.6,2c-1-1.2-2.4-1.9-4.3-1.9c-2,0-2.9,0.8-2.9,1.8c0,0.8,0.6,1.4,2.5,1.9l2.9,0.7
		c3.3,0.8,4.8,2.5,4.8,5c0,3.3-2.5,5.5-6.9,5.5C208.2,48.6,205.5,47.1,204.3,44.7z"/>
</g>
</svg>
