<?xml version="1.0" encoding="utf-8"?>
<!-- Generator: Adobe Illustrator 24.2.1, SVG Export Plug-In . SVG Version: 6.00 Build 0)  -->
<svg version="1.1" id="Layer_1" xmlns="http://www.w3.org/2000/svg" xmlns:xlink="http://www.w3.org/1999/xlink" x="0px" y="0px"
	 viewBox="0 0 225.1 51.8" style="enable-background:new 0 0 225.1 51.8;" xml:space="preserve">
<style type="text/css">
	.st0{enable-background:new    ;}
	.st1{fill:#26DCF9;}
</style>
<g class="st0">
	<path d="M15.2,15.3H25l-1.4,10.1c-2.1,2.4-6,4-10.3,4c-7.2,0-11.4-4.3-11.4-10.5c0-3.9,1.7-8.1,4.6-10.7c2.4-2.2,5.7-3.5,9.4-3.5
		c4.4,0,7.6,1.7,9.3,4.6L20.9,12c-1.1-1.8-2.9-2.7-5.3-2.7c-2.3,0-4.3,0.8-5.8,2.4c-1.8,1.9-2.6,4.6-2.6,6.9c0,3.9,2.2,6.1,6.7,6.1
		c2.1,0,4-0.5,5.4-1.4l0.5-3.8h-5.1L15.2,15.3z"/>
	<path d="M43,23.7h-9.9l-2.6,5.2h-5.4L37.6,5.1h5.8l5.8,23.8h-5.1L43,23.7z M42,19.4l-2.1-9.3l-4.7,9.3H42z"/>
	<path d="M80.2,21.5c0,2.3-1,4.5-2.9,5.8c-1.4,1-3.3,1.6-5.5,1.6H59.9l3.3-23.8H74c4.4,0,6.9,2.1,6.9,5.3c0,2.2-1.1,4.3-2.9,5.4
		c-0.6,0.4-1.3,0.6-2,0.8C78.7,17.3,80.2,18.9,80.2,21.5z M75.1,21.2c0-1.5-1-2.3-3.4-2.3h-5.5l-0.8,5.7H71c1.5,0,2.4-0.2,3.1-0.8
		C74.8,23.2,75.1,22.1,75.1,21.2z M67.6,9.4l-0.7,5.3h4.6c1.5,0,2.5-0.3,3.2-0.8c0.7-0.6,1-1.6,1-2.4c0-1.4-0.9-2.1-3.4-2.1H67.6z"
		/>
	<path d="M83.6,18.8c0-4.1,1.9-8.3,5.1-10.9c2.4-2,5.6-3.3,9.1-3.3c6.6,0,11.1,4.6,11.1,10.6c0,4-1.8,8.1-4.9,10.8
		c-2.4,2.1-5.7,3.4-9.3,3.4C88.1,29.4,83.6,25,83.6,18.8z M100.8,22.4c1.8-1.7,2.8-4.3,2.8-6.8c0-3.7-2.3-6.3-6.2-6.3
		c-2.1,0-4.1,0.8-5.6,2.1c-1.9,1.8-2.9,4.4-2.9,6.9c0,3.7,2.3,6.2,6.2,6.2C97.3,24.6,99.2,23.8,100.8,22.4z"/>
	<path d="M111.7,18.8c0-4.1,1.9-8.3,5.1-10.9c2.4-2,5.6-3.3,9.1-3.3c6.6,0,11.1,4.6,11.1,10.6c0,4-1.8,8.1-4.9,10.8
		c-2.4,2.1-5.7,3.4-9.3,3.4C116.2,29.4,111.7,25,111.7,18.8z M128.9,22.4c1.8-1.7,2.8-4.3,2.8-6.8c0-3.7-2.3-6.3-6.2-6.3
		c-2.1,0-4.1,0.8-5.6,2.1c-1.9,1.8-2.9,4.4-2.9,6.9c0,3.7,2.3,6.2,6.2,6.2C125.4,24.6,127.4,23.8,128.9,22.4z"/>
	<path d="M151.5,17.2l8.7,11.7h-6l-8-10.9H146l-1.5,10.9h-5l3.3-23.8h5l-1.5,10.8h0.2l10.8-10.8h6.4L151.5,17.2z"/>
	<path d="M166.5,5.1h5l-3.3,23.8h-5L166.5,5.1z"/>
	<path d="M198.3,5.1L195,28.9h-4.7l-9.5-15.8l-2.2,15.8h-5L177,5.1h4.7l9.5,15.8l2.2-15.8H198.3z"/>
	<path d="M214.1,15.3h9.8l-1.4,10.1c-2.1,2.4-6,4-10.3,4c-7.2,0-11.4-4.3-11.4-10.5c0-3.9,1.7-8.1,4.6-10.7c2.4-2.2,5.7-3.5,9.4-3.5
		c4.4,0,7.6,1.7,9.3,4.6l-4.2,2.8c-1.1-1.8-2.9-2.7-5.3-2.7c-2.3,0-4.3,0.8-5.8,2.4c-1.8,1.9-2.6,4.6-2.6,6.9c0,3.9,2.2,6.1,6.7,6.1
		c2.1,0,4-0.5,5.4-1.4l0.5-3.8h-5.1L214.1,15.3z"/>
</g>
<g class="st0">
	<path d="M2.5,44.9l1.8-1.4c0.7,1.1,2,1.8,3.5,1.8c1.4,0,2.1-0.6,2.1-1.4c0-0.6-0.4-1.1-1.7-1.4L6.2,42c-2.3-0.6-3.4-1.7-3.4-3.5
		c0-2.1,1.7-3.6,4.6-3.6c2.2,0,3.9,0.9,4.7,2.2l-1.8,1.4c-0.7-0.9-1.7-1.3-2.9-1.3c-1.3,0-2,0.5-2,1.3c0,0.6,0.4,1,1.7,1.3l2,0.5
		c2.3,0.6,3.3,1.7,3.3,3.4c0,2.3-1.7,3.8-4.8,3.8C5.2,47.5,3.3,46.5,2.5,44.9z"/>
	<path d="M35.1,35.2l-4.4,7.3v4.8h-2.6v-4.8l-4.4-7.3h2.9l2.8,5l2.8-5H35.1z"/>
	<path d="M46.2,44.9l1.8-1.4c0.7,1.1,2,1.8,3.5,1.8c1.4,0,2.1-0.6,2.1-1.4c0-0.6-0.4-1.1-1.7-1.4L50,42c-2.3-0.6-3.4-1.7-3.4-3.5
		c0-2.1,1.7-3.6,4.6-3.6c2.2,0,3.9,0.9,4.7,2.2l-1.8,1.4c-0.7-0.9-1.7-1.3-2.9-1.3c-1.3,0-2,0.5-2,1.3c0,0.6,0.4,1,1.7,1.3l2,0.5
		c2.3,0.6,3.3,1.7,3.3,3.4c0,2.3-1.7,3.8-4.8,3.8C49,47.5,47.1,46.5,46.2,44.9z"/>
	<path d="M71.6,37.6H68v-2.4h9.8v2.4h-3.6v9.7h-2.5V37.6z"/>
	<path d="M99.4,45v2.3h-8.9V35.2h8.7v2.3H93v2.5h5.8v2.3H93V45H99.4z"/>
	<path d="M126.1,35.2v12.1h-2.5v-8.4l-3.2,5.5h-1.9l-3.2-5.5v8.4h-2.5V35.2h3l3.7,6.3l3.7-6.3H126.1z"/>
	<path d="M139,44.9l1.8-1.4c0.7,1.1,2,1.8,3.5,1.8c1.4,0,2.1-0.6,2.1-1.4c0-0.6-0.4-1.1-1.7-1.4l-1.9-0.5c-2.3-0.6-3.4-1.7-3.4-3.5
		c0-2.1,1.7-3.6,4.6-3.6c2.2,0,3.9,0.9,4.7,2.2l-1.8,1.4c-0.7-0.9-1.7-1.3-2.9-1.3c-1.3,0-2,0.5-2,1.3c0,0.6,0.4,1,1.7,1.3l2,0.5
		c2.3,0.6,3.3,1.7,3.3,3.4c0,2.3-1.7,3.8-4.8,3.8C141.7,47.5,139.8,46.5,139,44.9z"/>
</g>
<g class="st0">
	<path class="st1" d="M170.7,42.1c0,3.1-2,4.9-4.8,4.9h-3.8v-9.8h3.8C168.7,37.3,170.7,39.1,170.7,42.1z M168.6,42.1c0-2-1-3-2.7-3
		h-1.7v5.9h1.7C167.6,45.1,168.6,44.1,168.6,42.1z"/>
	<path class="st1" d="M172.3,43.4v-6.2h2.1v6c0,1.3,0.8,2,2.1,2c1.3,0,2.1-0.7,2.1-2v-6h2.1v6.2c0,2.5-1.7,3.8-4.1,3.8
		C174,47.2,172.3,45.9,172.3,43.4z"/>
	<path class="st1" d="M185.6,43.5h-0.9V47h-2v-9.8h4.2c2.4,0,3.6,1.1,3.6,3.2c0,1.7-0.9,2.7-2.6,3l2.8,3.6h-2.5L185.6,43.5z
		 M184.7,41.7h2c1.1,0,1.6-0.4,1.6-1.3c0-0.9-0.5-1.3-1.6-1.3h-2V41.7z"/>
	<path class="st1" d="M200.7,37.3V47h-2v-4h-4.3v4h-2.1v-9.8h2.1v3.8h4.3v-3.8H200.7z"/>
	<path class="st1" d="M208.9,44.9h-4l-0.8,2.1H202l3.8-9.8h2.4l3.8,9.8h-2.2L208.9,44.9z M208.3,43.1l-1.4-3.8l-1.4,3.8H208.3z"/>
	<path class="st1" d="M224,37.3V47h-2v-6.8l-2.6,4.4h-1.6l-2.6-4.4V47h-2v-9.8h2.4l3,5.1l3-5.1H224z"/>
</g>
</svg>
