<?xml version="1.0" encoding="utf-8"?>
<!-- Generator: Adobe Illustrator 24.2.1, SVG Export Plug-In . SVG Version: 6.00 Build 0)  -->
<svg version="1.1" id="Layer_1" xmlns="http://www.w3.org/2000/svg" xmlns:xlink="http://www.w3.org/1999/xlink" x="0px" y="0px"
	 viewBox="0 0 254.4 42.9" style="enable-background:new 0 0 254.4 42.9;" xml:space="preserve">
<style type="text/css">
	.st0{enable-background:new    ;}
	.st1{fill:#BCD122;}
</style>
<g class="st0">
	<path d="M13.3,10.7h9.8l-1.4,10.1c-2.1,2.4-6,4-10.3,4C4.2,24.7,0,20.4,0,14.2c0-3.9,1.7-8.1,4.6-10.7C7,1.3,10.2,0,13.9,0
		c4.4,0,7.6,1.7,9.3,4.6L19,7.4c-1.1-1.8-2.9-2.7-5.3-2.7c-2.3,0-4.3,0.8-5.8,2.4C6,9,5.2,11.7,5.2,14c0,3.9,2.2,6.1,6.7,6.1
		c2.1,0,4-0.5,5.4-1.4l0.5-3.8h-5.1L13.3,10.7z"/>
	<path d="M41.1,19.1h-9.9l-2.6,5.2h-5.4L35.7,0.5h5.8l5.8,23.8h-5.1L41.1,19.1z M40.1,14.8L38,5.5l-4.7,9.3H40.1z"/>
	<path d="M78.3,16.9c0,2.3-1,4.5-2.9,5.8c-1.4,1-3.3,1.6-5.5,1.6H58l3.3-23.8h10.8c4.4,0,6.9,2.1,6.9,5.3c0,2.2-1.1,4.3-2.9,5.4
		c-0.6,0.4-1.3,0.6-2,0.8C76.8,12.7,78.3,14.3,78.3,16.9z M73.2,16.6c0-1.5-1-2.3-3.4-2.3h-5.5L63.6,20h5.5c1.5,0,2.4-0.2,3.1-0.8
		C72.9,18.6,73.2,17.5,73.2,16.6z M65.7,4.8L65,10.1h4.6c1.5,0,2.5-0.3,3.2-0.8c0.7-0.6,1-1.6,1-2.4c0-1.4-0.9-2.1-3.4-2.1H65.7z"/>
	<path d="M81.7,14.2c0-4.1,1.9-8.3,5.1-10.9c2.4-2,5.6-3.3,9.1-3.3c6.6,0,11.1,4.6,11.1,10.6c0,4-1.8,8.1-4.9,10.8
		c-2.4,2.1-5.7,3.4-9.3,3.4C86.2,24.7,81.7,20.3,81.7,14.2z M98.9,17.8c1.8-1.7,2.8-4.3,2.8-6.8c0-3.7-2.3-6.3-6.2-6.3
		c-2.1,0-4.1,0.8-5.6,2.1C88,8.6,87,11.3,87,13.8c0,3.7,2.3,6.2,6.2,6.2C95.4,20,97.3,19.2,98.9,17.8z"/>
	<path d="M109.8,14.2c0-4.1,1.9-8.3,5.1-10.9c2.4-2,5.6-3.3,9.1-3.3c6.6,0,11.1,4.6,11.1,10.6c0,4-1.8,8.1-4.9,10.8
		c-2.4,2.1-5.7,3.4-9.3,3.4C114.3,24.7,109.8,20.3,109.8,14.2z M127,17.8c1.8-1.7,2.8-4.3,2.8-6.8c0-3.7-2.3-6.3-6.2-6.3
		c-2.1,0-4.1,0.8-5.6,2.1c-1.9,1.8-2.9,4.4-2.9,6.9c0,3.7,2.3,6.2,6.2,6.2C123.5,20,125.5,19.2,127,17.8z"/>
	<path d="M149.6,12.5l8.7,11.7h-6l-8-10.9h-0.2l-1.5,10.9h-5l3.3-23.8h5l-1.5,10.8h0.2l10.8-10.8h6.4L149.6,12.5z"/>
	<path d="M164.6,0.5h5l-3.3,23.8h-5L164.6,0.5z"/>
	<path d="M196.4,0.5L193,24.3h-4.7l-9.5-15.8l-2.2,15.8h-5l3.3-23.8h4.7l9.5,15.8l2.2-15.8H196.4z"/>
	<path d="M212.2,10.7h9.8l-1.4,10.1c-2.1,2.4-6,4-10.3,4c-7.2,0-11.4-4.3-11.4-10.5c0-3.9,1.7-8.1,4.6-10.7c2.4-2.2,5.7-3.5,9.4-3.5
		c4.4,0,7.6,1.7,9.3,4.6l-4.2,2.8c-1.1-1.8-2.9-2.7-5.3-2.7c-2.3,0-4.3,0.8-5.8,2.4c-1.8,1.9-2.6,4.6-2.6,6.9c0,3.9,2.2,6.1,6.7,6.1
		c2.1,0,4-0.5,5.4-1.4l0.5-3.8h-5.1L212.2,10.7z"/>
</g>
<g class="st0">
	<path d="M0.6,40.2l1.8-1.4c0.7,1.1,2,1.8,3.5,1.8c1.4,0,2.1-0.6,2.1-1.4c0-0.6-0.4-1.1-1.7-1.4l-1.9-0.5c-2.3-0.6-3.4-1.7-3.4-3.5
		c0-2.1,1.7-3.6,4.6-3.6c2.2,0,3.9,0.9,4.7,2.2L8.5,34c-0.7-0.9-1.7-1.3-2.9-1.3c-1.3,0-2,0.5-2,1.3c0,0.6,0.4,1,1.7,1.3l2,0.5
		c2.3,0.6,3.3,1.7,3.3,3.4c0,2.3-1.7,3.8-4.8,3.8C3.3,42.9,1.4,41.9,0.6,40.2z"/>
	<path d="M33.2,30.6l-4.4,7.3v4.8h-2.6v-4.8l-4.4-7.3h2.9l2.8,5l2.8-5H33.2z"/>
	<path d="M44.3,40.2l1.8-1.4c0.7,1.1,2,1.8,3.5,1.8c1.4,0,2.1-0.6,2.1-1.4c0-0.6-0.4-1.1-1.7-1.4l-1.9-0.5c-2.3-0.6-3.4-1.7-3.4-3.5
		c0-2.1,1.7-3.6,4.6-3.6c2.2,0,3.9,0.9,4.7,2.2L52.2,34c-0.7-0.9-1.7-1.3-2.9-1.3c-1.3,0-2,0.5-2,1.3c0,0.6,0.4,1,1.7,1.3l2,0.5
		c2.3,0.6,3.3,1.7,3.3,3.4c0,2.3-1.7,3.8-4.8,3.8C47.1,42.9,45.2,41.9,44.3,40.2z"/>
	<path d="M69.7,33h-3.6v-2.4h9.8V33h-3.6v9.7h-2.5V33z"/>
	<path d="M97.5,40.4v2.3h-8.9V30.6h8.7v2.3h-6.2v2.5h5.8v2.3h-5.8v2.7H97.5z"/>
	<path d="M124.2,30.6v12.1h-2.5v-8.4l-3.2,5.5h-1.9l-3.2-5.5v8.4h-2.5V30.6h3l3.7,6.3l3.7-6.3H124.2z"/>
	<path d="M137.1,40.2l1.8-1.4c0.7,1.1,2,1.8,3.5,1.8c1.4,0,2.1-0.6,2.1-1.4c0-0.6-0.4-1.1-1.7-1.4l-1.9-0.5
		c-2.3-0.6-3.4-1.7-3.4-3.5c0-2.1,1.7-3.6,4.6-3.6c2.2,0,3.9,0.9,4.7,2.2l-1.8,1.4c-0.7-0.9-1.7-1.3-2.9-1.3c-1.3,0-2,0.5-2,1.3
		c0,0.6,0.4,1,1.7,1.3l2,0.5c2.3,0.6,3.3,1.7,3.3,3.4c0,2.3-1.7,3.8-4.8,3.8C139.8,42.9,137.9,41.9,137.1,40.2z"/>
</g>
<g class="st0">
	<path class="st1" d="M168.2,39.8c0,1.6-1.2,2.6-3.1,2.6h-4.9v-9.8h4.5c1.9,0,3.1,1,3.1,2.6c0,1.1-0.6,1.9-1.7,2.2
		C167.4,37.6,168.2,38.5,168.2,39.8z M162.3,34.4v2.2h1.9c1.1,0,1.5-0.4,1.5-1.1c0-0.7-0.4-1.1-1.5-1.1H162.3z M166,39.5
		c0-0.8-0.4-1.2-1.5-1.2h-2.2v2.3h2.2C165.6,40.6,166,40.3,166,39.5z"/>
	<path class="st1" d="M169.9,32.6h2.1v9.8h-2.1V32.6z"/>
	<path class="st1" d="M177.1,38.9h-0.9v3.5h-2v-9.8h4.2c2.4,0,3.6,1.1,3.6,3.2c0,1.7-0.9,2.7-2.6,3l2.8,3.6h-2.5L177.1,38.9z
		 M176.2,37.1h2c1.1,0,1.6-0.4,1.6-1.3c0-0.9-0.5-1.3-1.6-1.3h-2V37.1z"/>
	<path class="st1" d="M194.6,32.6v9.8h-2v-6.8l-2.6,4.4h-1.6l-2.6-4.4v6.8h-2v-9.8h2.4l3,5.1l3-5.1H194.6z"/>
	<path class="st1" d="M196.8,32.6h2.1v9.8h-2.1V32.6z"/>
	<path class="st1" d="M209.8,32.6v9.8h-1.9l-4.8-6.4v6.4h-2v-9.8h1.9l4.8,6.4v-6.4H209.8z"/>
	<path class="st1" d="M220.9,36.8v4.1c-0.8,1-2.3,1.6-4.1,1.6c-3.2,0-5.2-2.1-5.2-5c0-3,2.1-5.1,5.1-5.1c1.7,0,3.1,0.7,3.9,1.9
		l-1.6,1.1c-0.5-0.7-1.4-1.1-2.3-1.1c-1.8,0-2.9,1.3-2.9,3.2c0,2,1.2,3.1,3.2,3.1c0.9,0,1.6-0.2,2.1-0.6v-1.6h-2.1v-1.7H220.9z"/>
	<path class="st1" d="M231.1,32.6v9.8h-2v-4h-4.3v4h-2.1v-9.8h2.1v3.8h4.3v-3.8H231.1z"/>
	<path class="st1" d="M239.4,40.3h-4l-0.8,2.1h-2.2l3.8-9.8h2.4l3.8,9.8h-2.2L239.4,40.3z M238.7,38.5l-1.4-3.8l-1.4,3.8H238.7z"/>
	<path class="st1" d="M254.4,32.6v9.8h-2v-6.8l-2.6,4.4h-1.6l-2.6-4.4v6.8h-2v-9.8h2.4l3,5.1l3-5.1H254.4z"/>
</g>
</svg>
