<?xml version="1.0" encoding="utf-8"?>
<!-- Generator: Adobe Illustrator 24.2.1, SVG Export Plug-In . SVG Version: 6.00 Build 0)  -->
<svg version="1.1" id="Layer_1" xmlns="http://www.w3.org/2000/svg" xmlns:xlink="http://www.w3.org/1999/xlink" x="0px" y="0px"
	 viewBox="0 0 222.2 42.8" style="enable-background:new 0 0 222.2 42.8;" xml:space="preserve">
<style type="text/css">
	.st0{enable-background:new    ;}
	.st1{fill:#ED6240;}
</style>
<g class="st0">
	<path d="M13.4,10.6h9.8l-1.5,10.1c-2.1,2.4-6,4-10.3,4C4.2,24.7,0,20.4,0,14.2c0-3.9,1.7-8.1,4.6-10.7C7,1.3,10.3,0,14,0
		c4.4,0,7.6,1.7,9.3,4.6l-4.2,2.8c-1.1-1.8-2.9-2.7-5.3-2.7c-2.3,0-4.3,0.8-5.8,2.4C6.2,9,5.4,11.7,5.4,14c0,3.9,2.2,6.1,6.7,6.1
		c2.1,0,4-0.5,5.4-1.4l0.5-3.8h-5.1L13.4,10.6z"/>
	<path d="M41.1,19h-9.9l-2.6,5.2h-5.4L35.7,0.4h5.8l5.8,23.8h-5.1L41.1,19z M40.2,14.8l-2.1-9.3l-4.7,9.3H40.2z"/>
	<path d="M78.4,16.8c0,2.3-1,4.5-2.9,5.8c-1.4,1-3.3,1.6-5.5,1.6H58.1l3.3-23.8h10.8c4.4,0,6.9,2.1,6.9,5.3c0,2.2-1.1,4.3-2.9,5.4
		c-0.6,0.4-1.3,0.6-2,0.8C76.9,12.6,78.4,14.3,78.4,16.8z M73.3,16.5c0-1.5-1-2.3-3.4-2.3h-5.5l-0.8,5.7h5.5c1.5,0,2.4-0.2,3.1-0.8
		C73,18.5,73.3,17.4,73.3,16.5z M65.7,4.7L65,10h4.6c1.5,0,2.5-0.3,3.2-0.8c0.7-0.6,1-1.6,1-2.4c0-1.4-0.9-2.1-3.4-2.1H65.7z"/>
	<path d="M81.8,14.2c0-4.1,1.9-8.3,5.1-10.9C89.3,1.3,92.5,0,96,0c6.6,0,11.1,4.6,11.1,10.6c0,4-1.8,8.1-4.9,10.8
		c-2.4,2.1-5.7,3.4-9.3,3.4C86.2,24.7,81.8,20.3,81.8,14.2z M98.9,17.7c1.8-1.7,2.8-4.3,2.8-6.8c0-3.7-2.3-6.3-6.2-6.3
		c-2.1,0-4.1,0.8-5.6,2.1C88,8.5,87,11.1,87,13.6c0,3.7,2.3,6.2,6.2,6.2C95.4,20,97.4,19.1,98.9,17.7z"/>
	<path d="M109.9,14.2c0-4.1,1.9-8.3,5.1-10.9c2.4-2,5.6-3.3,9.1-3.3c6.6,0,11.1,4.6,11.1,10.6c0,4-1.8,8.1-4.9,10.8
		c-2.4,2.1-5.7,3.4-9.3,3.4C114.4,24.7,109.9,20.3,109.9,14.2z M127,17.7c1.8-1.7,2.8-4.3,2.8-6.8c0-3.7-2.3-6.3-6.2-6.3
		c-2.1,0-4.1,0.8-5.6,2.1c-1.9,1.8-2.9,4.4-2.9,6.9c0,3.7,2.3,6.2,6.2,6.2C123.5,20,125.5,19.1,127,17.7z"/>
	<path d="M149.7,12.5l8.7,11.7h-6l-8-10.9h-0.2l-1.5,10.9h-5L141,0.4h5l-1.5,10.8h0.2l10.8-10.8h6.4L149.7,12.5z"/>
	<path d="M164.7,0.4h5l-3.3,23.8h-5L164.7,0.4z"/>
	<path d="M196.4,0.4l-3.3,23.8h-4.7l-9.5-15.8l-2.2,15.8h-5L175,0.4h4.7l9.5,15.8l2.2-15.8C191.4,0.4,196.4,0.4,196.4,0.4z"/>
	<path d="M212.2,10.6h9.8l-1.4,10.1c-2.1,2.4-6,4-10.3,4c-7.2,0-11.4-4.3-11.4-10.5c0-3.9,1.7-8.1,4.6-10.7c2.4-2.2,5.7-3.5,9.4-3.5
		c4.4,0,7.6,1.7,9.3,4.6L218,7.4c-1.1-1.8-2.9-2.7-5.3-2.7c-2.3,0-4.3,0.8-5.8,2.4c-1.8,1.9-2.6,4.6-2.6,6.9c0,3.9,2.2,6.1,6.7,6.1
		c2.1,0,4-0.5,5.4-1.4l0.3-3.9h-5.1L212.2,10.6z"/>
</g>
<g class="st0">
	<path d="M0.7,40.2l1.8-1.4c0.7,1.1,2,1.8,3.5,1.8c1.4,0,2.1-0.6,2.1-1.4c0-0.6-0.4-1.1-1.7-1.4l-1.9-0.5c-2.3-0.6-3.4-1.7-3.4-3.5
		c0-2.1,1.7-3.6,4.6-3.6c2.2,0,3.9,0.9,4.7,2.2l-1.8,1.4c-0.7-0.9-1.7-1.3-2.9-1.3c-1.3,0-2,0.5-2,1.3c0,0.6,0.4,1,1.7,1.3l2,0.5
		c2.3,0.6,3.3,1.7,3.3,3.4c0,2.3-1.7,3.8-4.8,3.8C3.4,42.9,1.5,41.9,0.7,40.2z"/>
	<path d="M34,30.6l-4.4,7.3v4.8H27v-4.8l-4.4-7.3h2.9l2.8,5l2.8-5H34z"/>
	<path d="M45.8,40.2l1.8-1.4c0.7,1.1,2,1.8,3.5,1.8c1.4,0,2.1-0.6,2.1-1.4c0-0.6-0.4-1.1-1.7-1.4l-1.9-0.5c-2.3-0.6-3.4-1.7-3.4-3.5
		c0-2.1,1.7-3.6,4.6-3.6c2.2,0,3.9,0.9,4.7,2.2l-1.8,1.4c-0.7-0.9-1.7-1.3-2.9-1.3c-1.3,0-2,0.5-2,1.3c0,0.6,0.4,1,1.7,1.3l2,0.5
		c2.3,0.6,3.3,1.7,3.3,3.4c0,2.3-1.7,3.8-4.8,3.8C48.6,42.9,46.7,41.9,45.8,40.2z"/>
	<path d="M72,32.9h-3.6v-2.4h9.8v2.4h-3.6v9.7h-2.5L72,32.9L72,32.9z"/>
	<path d="M100.4,40.3v2.3h-8.9v-12h8.7v2.3H94v2.5h5.8v2.3H94v2.7h6.4V40.3z"/>
	<path d="M127.9,30.6v12.1h-2.5v-8.4l-3.2,5.5h-1.9l-3.2-5.5v8.4h-2.5V30.6h3l3.7,6.3l3.7-6.3H127.9z"/>
	<path d="M141.5,40.2l1.8-1.4c0.7,1.1,2,1.8,3.5,1.8c1.4,0,2.1-0.6,2.1-1.4c0-0.6-0.4-1.1-1.7-1.4l-1.9-0.5
		c-2.3-0.6-3.4-1.7-3.4-3.5c0-2.1,1.7-3.6,4.6-3.6c2.2,0,3.9,0.9,4.7,2.2l-1.8,1.4c-0.7-0.9-1.7-1.3-2.9-1.3c-1.3,0-2,0.5-2,1.3
		c0,0.6,0.4,1,1.7,1.3l2,0.5c2.3,0.6,3.3,1.7,3.3,3.4c0,2.3-1.7,3.8-4.8,3.8C144.2,42.9,142.3,41.9,141.5,40.2z"/>
</g>
<g class="st0">
	<path class="st1" d="M167,40.4v1.9h-6.8v-9.8h2.1v7.9H167z"/>
	<path class="st1" d="M167.5,37.5c0-2.9,2.1-5.1,5.1-5.1s5.1,2.2,5.1,5.1s-2.1,5.1-5.1,5.1C169.6,42.5,167.5,40.3,167.5,37.5z
		 M175.5,37.5c0-1.8-1.2-3.2-3-3.2s-3,1.3-3,3.2s1.2,3.1,3,3.1S175.5,39.3,175.5,37.5z"/>
	<path class="st1" d="M188.2,32.6v9.8h-1.9l-4.8-6.4v6.4h-2v-9.8h1.9l4.8,6.4v-6.4H188.2z"/>
	<path class="st1" d="M199,37.5c0,3.1-2,4.9-4.8,4.9h-3.8v-9.8h3.8C197,32.6,199,34.4,199,37.5z M196.8,37.5c0-2-1-3-2.7-3h-1.7v5.9
		h1.7C195.9,40.4,196.8,39.4,196.8,37.5z"/>
	<path class="st1" d="M200.3,37.5c0-2.9,2.1-5.1,5.1-5.1s5.1,2.2,5.1,5.1s-2.1,5.1-5.1,5.1C202.4,42.5,200.3,40.3,200.3,37.5z
		 M208.4,37.5c0-1.8-1.2-3.2-3-3.2s-3,1.3-3,3.2s1.2,3.1,3,3.1S208.4,39.3,208.4,37.5z"/>
	<path class="st1" d="M221,32.6v9.8h-1.9l-4.8-6.4v6.4h-2v-9.8h1.9L219,39v-6.4H221z"/>
</g>
</svg>
